<?xml version="1.0" standalone="no"?>
<!DOCTYPE svg PUBLIC "-//W3C//DTD SVG 20010904//EN"
 "http://www.w3.org/TR/2001/REC-SVG-20010904/DTD/svg10.dtd">
<svg version="1.0" xmlns="http://www.w3.org/2000/svg"
 width="512.000000pt" height="512.000000pt" viewBox="0 0 512.000000 512.000000"
 preserveAspectRatio="xMidYMid meet">

<g transform="translate(0.000000,512.000000) scale(0.100000,-0.100000)"
fill="#000000" stroke="none">
<path d="M3505 4945 c-331 -61 -580 -294 -671 -625 -25 -92 -26 -309 0 -405
77 -293 291 -514 586 -607 101 -31 336 -34 445 -4 277 75 494 281 586 556 41
123 51 290 24 421 -90 447 -527 747 -970 664z m305 -206 c71 -17 200 -84 258
-135 178 -156 260 -408 206 -634 -28 -120 -77 -206 -174 -301 -140 -140 -281
-195 -476 -187 -181 7 -322 73 -445 206 -208 227 -223 567 -36 819 92 123 252
218 411 244 59 9 191 3 256 -12z"/>
<path d="M3518 4531 l-33 -29 -3 -214 c-5 -296 -11 -280 141 -379 67 -44 132
-82 145 -85 59 -16 122 32 122 93 -1 50 -19 70 -115 133 l-80 52 -5 200 -5
200 -33 29 c-44 39 -90 39 -134 0z"/>
<path d="M415 3226 c-13 -13 -26 -39 -30 -57 -3 -19 -4 -690 -3 -1491 l3
-1456 24 -26 c46 -49 129 -41 159 16 8 16 13 98 15 263 l2 240 1957 3 1957 2
3 -249 c3 -248 3 -250 27 -275 44 -47 112 -44 153 8 16 20 18 93 18 1113 l0
1093 -28 31 c-30 34 -80 42 -122 19 -44 -23 -50 -63 -50 -310 l0 -230 -1960 0
-1960 0 0 634 0 634 -26 31 c-22 26 -33 31 -70 31 -34 0 -51 -6 -69 -24z
m4085 -1741 l0 -235 -1960 0 -1960 0 0 235 0 235 1960 0 1960 0 0 -235z m0
-500 l0 -65 -1960 0 -1960 0 0 65 0 65 1960 0 1960 0 0 -65z"/>
<path d="M717 2629 c-42 -25 -47 -57 -47 -299 0 -240 3 -259 44 -292 19 -16
65 -18 574 -18 l554 0 29 29 c26 26 29 36 29 93 0 165 -104 337 -260 428 -112
66 -142 70 -546 70 -225 0 -366 -4 -377 -11z m777 -209 c68 -26 134 -83 169
-149 l28 -51 -410 0 -411 0 0 110 0 110 285 0 c261 0 289 -2 339 -20z"/>
</g>
</svg>
